<svg xmlns="http://www.w3.org/2000/svg" viewBox="0 0 3580 1592" role="img" aria-label="Lauraville"><path fill="#fff" fill-rule="evenodd" d="M85 1579C84 1578 84 1576 84 1575C84 1573 83 1572 78 1572C74 1572 73 1571 72 1570C71 1568 70 1568 64 1568C58 1568 57 1568 56 1566C55 1564 54 1564 50 1564C46 1564 45 1564 42 1560C40 1558 38 1556 36 1556C33 1556 24 1547 24 1544C24 1542 23 1541 22 1540C21 1539 20 1538 20 1536C20 1534 19 1533 18 1532C15 1530 15 1510 18 1508C19 1507 20 1506 20 1504C20 1503 22 1500 28 1494C33 1489 36 1485 36 1484C36 1481 41 1476 45 1476C47 1476 48 1475 48 1473C48 1469 57 1460 60 1460C61 1460 65 1457 70 1452C76 1446 79 1444 80 1444C82 1444 83 1443 84 1442C85 1441 86 1440 88 1440C90 1440 92 1439 94 1436C96 1433 98 1432 100 1432C102 1432 103 1431 104 1430C105 1429 106 1428 108 1428C110 1428 111 1427 112 1426C113 1424 114 1424 118 1424C122 1424 123 1424 124 1422C125 1420 126 1420 130 1420C134 1420 135 1420 136 1418C137 1416 138 1416 144 1416C150 1416 151 1416 152 1414C153 1412 154 1412 164 1412C174 1412 175 1412 176 1410C177 1408 178 1408 182 1408C186 1408 187 1408 188 1406C189 1404 190 1404 196 1404C202 1404 203 1404 204 1402C205 1400 206 1400 214 1400C222 1400 223 1400 224 1398C225 1396 226 1396 232 1396C238 1396 239 1396 240 1394C241 1392 242 1392 250 1392C258 1392 259 1392 260 1390C261 1388 262 1388 268 1388C274 1388 275 1388 276 1386C277 1384 278 1384 286 1384C294 1384 295 1384 296 1382C297 1380 298 1380 304 1380C310 1380 311 1380 312 1378C313 1376 314 1376 320 1376C326 1376 327 1376 328 1374C329 1372 330 1372 336 1372C342 1372 343 1372 346 1368C348 1366 350 1364 352 1364C353 1364 358 1360 366 1352C374 1344 379 1340 380 1340C383 1340 400 1323 400 1319C400 1317 401 1316 403 1316C407 1316 432 1291 432 1288C432 1287 436 1282 444 1274C452 1266 456 1261 456 1260C456 1259 460 1254 466 1248C472 1242 476 1237 476 1236C476 1235 480 1230 486 1224C493 1217 496 1213 496 1212C496 1210 498 1208 500 1206C502 1204 504 1202 504 1200C504 1199 507 1195 514 1188C521 1182 524 1177 524 1176C524 1175 526 1172 530 1168C534 1164 536 1161 536 1160C536 1159 538 1156 542 1152C546 1148 548 1145 548 1144C548 1143 550 1140 554 1136C558 1132 560 1129 560 1128C560 1127 562 1124 566 1120C570 1116 572 1113 572 1112C572 1110 573 1108 576 1106C579 1104 580 1102 580 1100C580 1099 582 1096 586 1092C590 1088 592 1085 592 1084C592 1083 594 1080 598 1076C602 1072 604 1069 604 1068C604 1066 605 1064 608 1062C611 1060 612 1058 612 1056C612 1055 614 1052 618 1048C622 1044 624 1041 624 1040C624 1038 625 1036 628 1034C631 1032 632 1030 632 1028C632 1027 634 1024 638 1020C642 1016 644 1013 644 1012C644 1010 645 1008 648 1006C651 1004 652 1002 652 1000C652 998 653 996 656 994C659 992 660 990 660 988C660 986 661 984 664 982C667 980 668 978 668 976C668 975 670 972 674 968C678 964 680 961 680 960C680 958 681 957 682 956C683 955 684 954 684 952C684 951 686 948 690 944C694 940 696 937 696 936C696 934 697 932 700 930C703 928 704 926 704 924C704 922 705 921 706 920C707 919 708 918 708 916C708 914 709 912 712 910C715 908 716 906 716 904C716 902 717 900 720 898C723 896 724 894 724 892C724 890 725 888 728 886C731 884 732 882 732 880C732 878 733 877 734 876C735 875 736 874 736 872C736 870 737 868 740 866C743 864 744 862 744 860C744 858 745 856 748 854C751 852 752 850 752 848C752 846 753 845 754 844C755 843 756 842 756 840C756 838 757 836 760 834C763 832 764 830 764 828C764 826 765 825 766 824C767 823 768 822 768 820C768 818 769 816 772 814C775 812 776 810 776 808C776 806 777 805 778 804C779 803 780 802 780 800C780 798 781 797 782 796C783 795 784 794 784 792C784 790 785 788 788 786C791 784 792 782 792 780C792 778 793 777 794 776C795 775 796 774 796 772C796 770 797 769 798 768C799 767 800 766 800 764C800 762 801 761 802 760C803 759 804 758 804 756C804 754 805 753 806 752C807 751 808 750 808 748C808 746 809 744 812 742C815 740 816 738 816 736C816 734 817 733 818 732C819 731 820 730 820 728C820 726 821 724 824 722C827 720 828 718 828 716C828 714 829 713 830 712C831 711 832 710 832 708C832 706 833 705 834 704C835 703 836 702 836 700C836 698 837 697 838 696C839 695 840 694 840 692C840 690 841 688 844 686C847 684 848 682 848 680C848 678 849 677 850 676C851 675 852 674 852 672C852 670 853 669 854 668C855 667 856 666 856 664C856 662 857 660 860 658C863 656 864 654 864 652C864 650 865 649 866 648C867 647 868 646 868 644C868 642 869 641 870 640C871 639 872 638 872 636C872 634 873 632 876 630C879 628 880 626 880 624C880 622 881 621 882 620C883 619 884 618 884 616C884 614 885 613 886 612C887 611 888 610 888 608C888 606 889 604 892 602C895 600 896 598 896 596C896 594 897 593 898 592C899 591 900 590 900 588C900 586 901 585 902 584C903 583 904 582 904 580C904 578 905 577 906 576C907 575 908 574 908 572C908 570 909 569 910 568C911 567 912 566 912 564C912 562 913 560 916 558C919 556 920 554 920 552C920 550 921 549 922 548C923 547 924 546 924 544C924 542 925 541 926 540C927 539 928 538 928 536C928 534 929 533 930 532C931 531 932 530 932 528C932 526 933 525 934 524C935 523 936 522 936 520C936 517 937 516 940 516C943 516 944 515 944 510C944 506 945 505 946 504C947 503 948 502 948 500C948 498 949 497 950 496C951 495 952 494 952 492C952 490 953 489 954 488C955 487 956 486 956 484C956 482 957 481 958 480C959 479 960 478 960 476C960 474 961 473 962 472C963 471 964 470 964 468C964 466 965 465 966 464C967 463 968 462 968 460C968 458 969 457 970 456C971 455 972 454 972 452C972 450 973 449 974 448C975 447 976 446 976 444C976 442 977 441 978 440C979 439 980 438 980 436C980 434 981 433 982 432C983 431 984 430 984 428C984 426 985 425 986 424C987 423 988 422 988 420C988 418 989 416 992 414C996 411 996 410 996 406C996 402 996 401 998 400C999 399 1000 398 1000 396C1000 394 1001 392 1004 390C1008 387 1008 386 1008 382C1008 378 1008 377 1010 376C1011 375 1012 374 1012 372C1012 370 1013 369 1014 368C1015 367 1016 366 1016 364C1016 362 1017 361 1018 360C1019 359 1020 358 1020 356C1020 354 1021 353 1022 352C1023 351 1024 350 1024 348C1024 346 1025 345 1026 344C1027 343 1028 342 1028 340C1028 338 1029 337 1030 336C1031 335 1032 334 1032 332C1032 330 1033 329 1034 328C1035 327 1036 326 1036 324C1036 322 1037 321 1038 320C1039 319 1040 318 1040 316C1040 314 1041 313 1042 312C1044 311 1044 310 1044 306C1044 302 1044 301 1046 300C1047 299 1048 298 1048 296C1048 294 1049 293 1050 292C1051 291 1052 290 1052 288C1052 286 1053 285 1054 284C1055 283 1056 282 1056 280C1056 278 1057 277 1058 276C1059 275 1060 274 1060 272C1060 270 1061 269 1062 268C1063 267 1064 266 1064 264C1064 262 1065 261 1066 260C1067 259 1068 258 1068 256C1068 254 1069 253 1070 252C1072 251 1072 250 1072 246C1072 242 1072 241 1074 240C1075 239 1076 238 1076 236C1076 234 1077 233 1078 232C1079 231 1080 230 1080 228C1080 226 1081 225 1082 224C1084 223 1084 222 1084 218C1084 214 1084 213 1086 212C1087 211 1088 210 1088 208C1088 206 1089 205 1090 204C1091 203 1092 202 1092 200C1092 198 1093 197 1094 196C1095 195 1096 194 1096 192C1096 190 1097 189 1098 188C1100 187 1100 186 1100 182C1100 178 1100 177 1102 176C1103 175 1104 174 1104 172C1104 170 1105 169 1106 168C1107 167 1108 166 1108 164C1108 162 1109 161 1110 160C1112 159 1112 158 1112 154C1112 150 1112 149 1114 148C1115 147 1116 146 1116 144C1116 142 1117 141 1118 140C1119 139 1120 138 1120 136C1120 134 1121 133 1122 132C1123 131 1124 130 1124 128C1124 126 1125 125 1126 124C1128 123 1128 122 1128 118C1128 114 1128 113 1130 112C1131 111 1132 110 1132 108C1132 106 1133 105 1134 104C1135 103 1136 102 1136 100C1136 98 1137 97 1138 96C1140 95 1140 94 1140 90C1140 86 1140 85 1142 84C1143 83 1144 82 1144 80C1144 78 1145 77 1146 76C1147 75 1148 74 1148 72C1148 70 1149 69 1150 68C1152 67 1152 66 1152 62C1152 58 1152 57 1154 56C1155 55 1156 54 1156 52C1156 50 1157 49 1158 48C1160 47 1160 46 1160 42C1160 38 1160 37 1162 36C1164 35 1164 34 1164 30C1164 26 1164 25 1166 24C1167 23 1168 22 1168 20C1168 16 1168 16 1184 16C1198 16 1199 16 1200 18C1201 20 1202 20 1216 20C1232 20 1232 20 1232 26C1232 30 1232 31 1230 32C1228 33 1228 34 1228 38C1228 42 1228 43 1226 44C1225 45 1224 46 1224 48C1224 50 1223 51 1222 52C1221 53 1220 54 1220 56C1220 58 1219 59 1218 60C1216 61 1216 62 1216 66C1216 70 1216 71 1214 72C1213 73 1212 74 1212 76C1212 78 1211 79 1210 80C1208 81 1208 82 1208 86C1208 90 1208 91 1206 92C1205 93 1204 94 1204 96C1204 98 1203 99 1202 100C1201 101 1200 102 1200 104C1200 106 1199 107 1198 108C1196 109 1196 110 1196 114C1196 118 1196 119 1194 120C1193 121 1192 122 1192 124C1192 126 1191 127 1190 128C1189 129 1188 130 1188 132C1188 134 1187 135 1186 136C1184 137 1184 138 1184 142C1184 146 1184 147 1182 148C1181 149 1180 150 1180 152C1180 154 1179 155 1178 156C1177 157 1176 158 1176 160C1176 162 1175 163 1174 164C1173 165 1172 166 1172 168C1172 170 1171 171 1170 172C1168 173 1168 174 1168 178C1168 182 1168 183 1166 184C1165 185 1164 186 1164 188C1164 190 1163 192 1160 194C1156 197 1156 198 1156 202C1156 206 1156 207 1154 208C1152 209 1152 210 1152 214C1152 218 1152 219 1150 220C1149 221 1148 222 1148 224C1148 226 1147 227 1146 228C1145 229 1144 230 1144 232C1144 234 1143 235 1142 236C1140 237 1140 238 1140 242C1140 246 1140 247 1138 248C1137 249 1136 250 1136 252C1136 254 1135 255 1134 256C1133 257 1132 258 1132 260C1132 262 1131 263 1130 264C1129 265 1128 266 1128 268C1128 270 1127 271 1126 272C1124 273 1124 274 1124 278C1124 282 1124 283 1122 284C1121 285 1120 286 1120 288C1120 290 1119 291 1118 292C1117 293 1116 294 1116 296C1116 298 1115 299 1114 300C1113 301 1112 302 1112 304C1112 306 1111 307 1110 308C1109 309 1108 310 1108 312C1108 314 1107 315 1106 316C1105 317 1104 318 1104 320C1104 322 1103 323 1102 324C1100 325 1100 326 1100 330C1100 334 1100 335 1098 336C1097 337 1096 338 1096 340C1096 342 1095 343 1094 344C1093 345 1092 346 1092 348C1092 350 1091 351 1090 352C1089 353 1088 354 1088 356C1088 358 1087 359 1086 360C1085 361 1084 362 1084 364C1084 366 1083 367 1082 368C1080 369 1080 370 1080 374C1080 378 1080 379 1078 380C1077 381 1076 382 1076 384C1076 386 1075 387 1074 388C1073 389 1072 390 1072 392C1072 394 1071 395 1070 396C1069 397 1068 398 1068 400C1068 402 1067 403 1066 404C1065 405 1064 406 1064 408C1064 410 1063 411 1062 412C1060 413 1060 414 1060 418C1060 422 1060 423 1058 424C1057 425 1056 426 1056 428C1056 430 1055 431 1054 432C1053 433 1052 434 1052 436C1052 438 1051 439 1050 440C1049 441 1048 442 1048 444C1048 446 1047 447 1046 448C1045 449 1044 450 1044 452C1044 454 1043 455 1042 456C1041 457 1040 458 1040 460C1040 462 1039 463 1038 464C1037 465 1036 466 1036 468C1036 470 1035 471 1034 472C1033 473 1032 474 1032 476C1032 478 1031 480 1028 482C1025 484 1024 486 1024 488C1024 490 1023 491 1022 492C1020 493 1020 494 1020 498C1020 502 1020 503 1018 504C1017 505 1016 506 1016 508C1016 510 1015 512 1012 514C1009 516 1008 518 1008 520C1008 522 1007 523 1006 524C1005 525 1004 526 1004 528C1004 530 1003 531 1002 532C1001 533 1000 534 1000 536C1000 538 999 539 998 540C997 541 996 542 996 544C996 546 995 547 994 548C993 549 992 550 992 552C992 554 991 556 988 558C985 560 984 562 984 564C984 566 983 567 982 568C981 569 980 570 980 572C980 574 979 575 978 576C977 577 976 578 976 580C976 582 975 584 972 586C969 588 968 590 968 592C968 594 967 595 966 596C965 597 964 598 964 600C964 602 963 603 962 604C961 605 960 606 960 608C960 610 959 612 956 614C953 616 952 618 952 620C952 622 951 623 950 624C949 625 948 626 948 628C948 630 947 632 944 634C941 636 940 638 940 640C940 642 939 643 938 644C937 645 936 646 936 648C936 650 935 652 932 654C929 656 928 658 928 660C928 662 927 663 926 664C925 665 924 666 924 668C924 670 923 672 920 674C917 676 916 678 916 680C916 682 915 684 912 686C909 688 908 690 908 692C908 694 907 695 906 696C905 697 904 698 904 700C904 702 903 703 902 704C901 705 900 706 900 708C900 710 899 712 896 714C893 716 892 718 892 720C892 722 891 724 888 726C885 728 884 730 884 732C884 734 883 735 882 736C881 737 880 738 880 740C880 742 879 744 876 746C873 748 872 750 872 752C872 754 871 756 868 758C865 760 864 762 864 764C864 766 863 767 862 768C861 769 860 770 860 772C860 774 859 776 856 778C853 780 852 782 852 784C852 786 851 787 850 788C849 789 848 790 848 792C848 794 847 796 844 798C841 800 840 802 840 804C840 806 839 808 836 810C833 812 832 814 832 816C832 818 831 820 828 822C825 824 824 826 824 828C824 830 823 832 820 834C817 836 816 838 816 840C816 842 815 843 814 844C813 845 812 846 812 848C812 850 811 852 808 854C805 856 804 858 804 860C804 862 803 863 802 864C801 865 800 866 800 868C800 870 799 872 796 874C793 876 792 878 792 880C792 882 791 884 788 886C785 888 784 890 784 892C784 894 783 895 782 896C781 897 780 898 780 900C780 902 779 904 776 906C773 908 772 910 772 912C772 914 771 916 768 918C765 920 764 922 764 924C764 926 763 928 760 930C757 932 756 934 756 936C756 938 755 940 752 942C749 944 748 946 748 948C748 950 747 952 744 954C741 956 740 958 740 960C740 962 739 964 736 966C733 968 732 970 732 972C732 974 731 975 730 976C729 977 728 978 728 980C728 982 727 984 724 986C721 988 720 990 720 992C720 994 719 996 716 998C713 1000 712 1002 712 1004C712 1006 711 1008 708 1010C705 1012 704 1014 704 1016C704 1018 703 1020 700 1022C697 1024 696 1026 696 1028C696 1030 695 1031 694 1032C693 1033 692 1034 692 1036C692 1037 690 1040 686 1044C682 1048 680 1051 680 1052C680 1054 679 1056 676 1058C673 1060 672 1062 672 1064C672 1066 671 1067 670 1068C669 1069 668 1070 668 1072C668 1074 667 1076 664 1078C661 1080 660 1082 660 1084C660 1085 658 1088 654 1092C650 1096 648 1099 648 1100C648 1102 647 1104 644 1106C641 1108 640 1110 640 1112C640 1114 639 1116 636 1118C633 1120 632 1122 632 1124C632 1126 631 1128 628 1130C625 1132 624 1134 624 1136C624 1138 623 1140 620 1142C617 1144 616 1146 616 1148C616 1149 614 1152 610 1156C606 1160 604 1163 604 1164C604 1166 603 1168 600 1170C597 1172 596 1174 596 1176C596 1178 595 1180 592 1182C589 1184 588 1186 588 1188C588 1189 586 1192 582 1196C578 1200 576 1203 576 1204C576 1205 573 1209 568 1214C563 1219 560 1223 560 1224C560 1226 558 1228 556 1230C554 1232 552 1234 552 1236C552 1237 549 1241 542 1248C535 1254 532 1259 532 1260C532 1261 529 1265 524 1270C519 1275 516 1279 516 1280C516 1281 514 1284 510 1288C506 1292 504 1295 504 1296C504 1297 501 1301 496 1306C491 1311 488 1315 488 1316C488 1317 486 1320 482 1324C478 1328 476 1331 476 1332C476 1334 475 1335 474 1336C472 1337 472 1338 472 1340C472 1344 472 1344 492 1344C510 1344 511 1344 512 1342C513 1340 514 1340 536 1340C558 1340 559 1340 560 1338C561 1336 562 1336 592 1336C622 1336 623 1336 624 1334C625 1332 626 1332 660 1332C694 1332 695 1332 696 1330C697 1328 698 1328 724 1328C750 1328 751 1328 752 1326C753 1324 754 1324 782 1324C810 1324 811 1324 812 1322C813 1320 814 1320 850 1320C886 1320 887 1320 888 1318C889 1316 890 1316 956 1316C1022 1316 1023 1316 1024 1314C1025 1312 1026 1312 1034 1312C1042 1312 1043 1312 1044 1314C1045 1316 1046 1316 1118 1316C1190 1316 1191 1316 1192 1318C1193 1320 1194 1320 1230 1320C1266 1320 1267 1320 1268 1322C1269 1324 1270 1324 1296 1324C1322 1324 1323 1324 1324 1326C1325 1328 1326 1328 1350 1328C1374 1328 1375 1328 1376 1330C1377 1332 1378 1332 1402 1332C1426 1332 1427 1332 1428 1334C1429 1336 1430 1336 1450 1336C1470 1336 1471 1336 1472 1338C1473 1340 1474 1340 1490 1340C1506 1340 1507 1340 1508 1342C1509 1344 1510 1344 1524 1344C1538 1344 1539 1344 1540 1346C1541 1348 1542 1348 1578 1348C1614 1348 1615 1348 1616 1350C1617 1352 1618 1352 1634 1352C1650 1352 1651 1352 1652 1354C1653 1356 1654 1356 1672 1356C1690 1356 1691 1356 1692 1358C1693 1360 1694 1360 1708 1360C1722 1360 1723 1360 1724 1362C1725 1364 1726 1364 1738 1364C1750 1364 1751 1364 1752 1366C1753 1368 1754 1368 1766 1368C1778 1368 1779 1368 1780 1370C1781 1372 1782 1372 1792 1372C1802 1372 1803 1372 1804 1374C1805 1376 1806 1376 1816 1376C1826 1376 1827 1376 1828 1378C1829 1380 1830 1380 1838 1380C1846 1380 1847 1380 1848 1382C1849 1384 1850 1384 1860 1384C1870 1384 1871 1384 1872 1386C1873 1388 1874 1388 1882 1388C1890 1388 1891 1388 1892 1390C1893 1392 1894 1392 1900 1392C1906 1392 1907 1392 1908 1394C1909 1396 1910 1396 1920 1396C1930 1396 1931 1396 1932 1398C1933 1400 1934 1400 1942 1400C1950 1400 1951 1400 1952 1402C1953 1404 1954 1404 1964 1404C1974 1404 1975 1404 1976 1406C1977 1408 1978 1408 1986 1408C1994 1408 1995 1408 1996 1410C1997 1412 1998 1412 2006 1412C2014 1412 2015 1412 2016 1414C2017 1416 2018 1416 2024 1416C2030 1416 2031 1416 2032 1418C2033 1419 2034 1420 2037 1420C2042 1420 2042 1424 2036 1424C2033 1424 2032 1425 2032 1427C2032 1429 2030 1432 2027 1435C2022 1440 2022 1440 2014 1440C2006 1440 2005 1440 2004 1438C2003 1436 2002 1436 1990 1436C1978 1436 1977 1436 1976 1434C1975 1432 1974 1432 1960 1432C1946 1432 1945 1432 1944 1430C1943 1428 1942 1428 1928 1428C1914 1428 1913 1428 1912 1426C1911 1424 1910 1424 1892 1424C1874 1424 1873 1424 1872 1422C1871 1420 1870 1420 1856 1420C1842 1420 1841 1420 1840 1418C1839 1416 1838 1416 1820 1416C1802 1416 1801 1416 1800 1414C1799 1412 1798 1412 1782 1412C1766 1412 1765 1412 1764 1410C1763 1408 1762 1408 1748 1408C1734 1408 1733 1408 1732 1406C1731 1404 1730 1404 1716 1404C1702 1404 1701 1404 1700 1402C1699 1400 1698 1400 1684 1400C1670 1400 1669 1400 1668 1398C1667 1396 1666 1396 1652 1396C1638 1396 1637 1396 1636 1394C1635 1392 1634 1392 1620 1392C1606 1392 1605 1392 1604 1390C1603 1388 1602 1388 1588 1388C1574 1388 1573 1388 1572 1386C1571 1384 1570 1384 1556 1384C1542 1384 1541 1384 1540 1382C1539 1380 1538 1380 1524 1380C1510 1380 1509 1380 1508 1378C1507 1376 1506 1376 1486 1376C1466 1376 1465 1376 1464 1374C1463 1372 1462 1372 1438 1372C1414 1372 1413 1372 1412 1370C1411 1368 1410 1368 1384 1368C1358 1368 1357 1368 1356 1366C1355 1364 1354 1364 1300 1364C1246 1364 1245 1364 1244 1362C1242 1359 1042 1359 1040 1362C1039 1364 1038 1364 960 1364C882 1364 881 1364 880 1366C879 1368 878 1368 812 1368C746 1368 745 1368 744 1370C743 1372 742 1372 692 1372C642 1372 641 1372 640 1374C639 1376 638 1376 620 1376C602 1376 601 1376 600 1378C599 1380 598 1380 580 1380C562 1380 561 1380 560 1382C559 1384 558 1384 540 1384C522 1384 521 1384 520 1386C519 1388 518 1388 504 1388C490 1388 489 1388 488 1390C487 1392 486 1392 474 1392C462 1392 461 1392 460 1394C459 1396 458 1396 450 1396C442 1396 441 1396 440 1398C439 1400 438 1400 430 1400C422 1400 421 1400 420 1402C419 1404 418 1404 412 1404C406 1404 405 1404 404 1406C403 1407 402 1408 400 1408C399 1408 397 1409 394 1412C392 1414 389 1416 387 1416C385 1416 384 1417 384 1420C384 1423 383 1424 381 1424C378 1424 374 1428 364 1438C355 1447 349 1452 348 1452C347 1452 341 1457 332 1466C323 1475 317 1480 316 1480C315 1480 310 1484 304 1490C297 1497 293 1500 292 1500C290 1500 288 1502 286 1504C284 1507 282 1508 280 1508C279 1508 276 1510 272 1514C268 1518 265 1520 264 1520C263 1520 260 1522 256 1526C252 1530 249 1532 248 1532C246 1532 244 1533 242 1536C240 1539 238 1540 236 1540C234 1540 233 1541 232 1542C231 1543 230 1544 228 1544C226 1544 224 1545 222 1548C220 1551 218 1552 216 1552C214 1552 213 1553 212 1554C211 1556 210 1556 206 1556C202 1556 201 1556 200 1558C199 1559 198 1560 196 1560C194 1560 193 1561 192 1562C191 1564 190 1564 186 1564C182 1564 181 1564 180 1566C179 1568 178 1568 170 1568C162 1568 161 1568 160 1570C159 1572 158 1572 152 1572C146 1572 145 1572 144 1574C143 1576 142 1576 130 1576C118 1576 117 1576 116 1578C115 1580 114 1580 100 1580C89 1580 85 1580 85 1579ZM112 1546C113 1544 114 1544 120 1544C126 1544 127 1544 128 1542C129 1540 130 1540 134 1540C138 1540 139 1540 140 1538C141 1536 142 1536 146 1536C150 1536 151 1536 152 1534C153 1533 154 1532 156 1532C158 1532 160 1531 162 1528C164 1525 166 1524 168 1524C170 1524 171 1523 172 1522C173 1521 174 1520 176 1520C178 1520 180 1519 182 1516C184 1514 186 1512 188 1512C189 1512 193 1509 198 1504C203 1499 207 1496 208 1496C209 1496 217 1489 231 1475C249 1457 252 1454 252 1451C251 1448 246 1447 244 1450C243 1452 242 1452 232 1452C222 1452 221 1452 220 1454C219 1456 218 1456 210 1456C202 1456 201 1456 200 1458C199 1460 198 1460 190 1460C182 1460 181 1460 180 1462C179 1464 178 1464 172 1464C166 1464 165 1464 164 1466C163 1468 162 1468 156 1468C150 1468 149 1468 146 1472C143 1476 142 1476 138 1476C134 1476 133 1476 132 1478C131 1479 130 1480 128 1480C126 1480 125 1481 124 1482C123 1483 122 1484 120 1484C118 1484 116 1485 114 1488C112 1490 110 1492 108 1492C107 1492 103 1495 97 1501C88 1510 88 1510 88 1524C88 1538 88 1539 90 1540C91 1541 92 1542 92 1544C92 1548 92 1548 102 1548C110 1548 111 1548 112 1546ZM1272 1142C1271 1140 1270 1140 1262 1140C1254 1140 1254 1140 1249 1135C1244 1130 1243 1126 1246 1124C1248 1123 1248 1122 1248 1118C1248 1114 1248 1113 1246 1112C1245 1112 1244 1111 1244 1110C1244 1110 1245 1109 1246 1108C1249 1107 1249 1104 1246 1104C1245 1103 1244 1102 1244 1101C1243 1100 1242 1100 1238 1100C1234 1100 1233 1100 1230 1104C1227 1108 1226 1108 1222 1108C1218 1108 1217 1108 1216 1110C1215 1111 1214 1112 1212 1112C1210 1112 1209 1113 1208 1114C1207 1116 1206 1116 1194 1116C1182 1116 1181 1116 1180 1118C1179 1120 1178 1120 1170 1120C1162 1120 1161 1120 1160 1118C1159 1116 1158 1116 1146 1116C1134 1116 1133 1116 1132 1114C1131 1112 1130 1112 1126 1112C1122 1112 1122 1112 1109 1099C1101 1091 1096 1085 1096 1084C1096 1081 1083 1068 1080 1068C1078 1068 1076 1070 1074 1072C1072 1075 1070 1076 1068 1076C1067 1076 1064 1078 1060 1082C1056 1086 1053 1088 1052 1088C1051 1088 1048 1090 1044 1094C1040 1098 1037 1100 1036 1100C1034 1100 1033 1101 1032 1102C1031 1103 1030 1104 1028 1104C1026 1104 1024 1105 1022 1108C1020 1111 1018 1112 1016 1112C1014 1112 1013 1113 1012 1114C1011 1115 1010 1116 1008 1116C1006 1116 1005 1117 1004 1118C1003 1120 1002 1120 998 1120C994 1120 993 1120 992 1122C991 1124 990 1124 986 1124C982 1124 981 1124 980 1126C979 1128 978 1128 964 1128C950 1128 949 1128 948 1130C947 1132 946 1132 942 1132C938 1132 937 1132 936 1130C935 1128 934 1128 922 1128C910 1128 909 1128 908 1126C907 1124 906 1124 902 1124C898 1124 897 1124 894 1120C892 1118 890 1116 888 1116C884 1116 880 1111 880 1106C880 1102 880 1101 878 1100C877 1099 876 1098 876 1096C876 1094 877 1093 878 1092C880 1091 880 1090 880 1086C880 1082 880 1081 882 1080C883 1079 884 1078 884 1076C884 1074 885 1073 886 1072C887 1071 888 1070 888 1068C888 1066 889 1065 890 1064C891 1063 892 1062 892 1060C892 1058 893 1056 896 1054C899 1052 900 1050 900 1048C900 1046 901 1044 904 1042C906 1040 908 1038 908 1036C908 1033 945 996 948 996C949 996 952 994 956 990C960 986 963 984 964 984C965 984 968 982 972 978C976 974 979 972 980 972C982 972 984 971 986 968C988 965 990 964 992 964C994 964 996 963 998 960C1000 957 1002 956 1004 956C1006 956 1007 955 1008 954C1009 953 1010 952 1012 952C1014 952 1015 951 1016 950C1017 949 1018 948 1020 948C1022 948 1023 947 1024 946C1025 944 1026 944 1030 944C1034 944 1035 944 1036 942C1037 940 1038 940 1044 940C1050 940 1051 940 1052 938C1053 936 1054 936 1082 936C1110 936 1111 936 1112 938C1113 940 1114 940 1120 940C1126 940 1127 940 1128 942C1129 943 1130 944 1132 944C1134 944 1135 945 1136 946C1137 948 1138 948 1143 948C1149 948 1149 949 1143 955C1139 959 1138 960 1134 960C1130 960 1129 960 1128 962C1127 964 1126 964 1098 964C1070 964 1069 964 1068 966C1067 968 1066 968 1062 968C1058 968 1057 968 1056 970C1055 971 1054 972 1052 972C1050 972 1049 973 1048 974C1047 975 1046 976 1044 976C1042 976 1040 977 1038 980C1036 983 1034 984 1032 984C1030 984 1029 985 1028 986C1027 987 1026 988 1024 988C1023 988 1020 990 1016 994C1012 998 1009 1000 1007 1000C1005 1000 1004 1001 1004 1003C1004 1007 995 1016 991 1016C989 1016 988 1017 988 1020C988 1023 987 1024 985 1024C981 1024 972 1033 972 1036C972 1037 970 1040 966 1044C962 1048 960 1051 960 1052C960 1054 959 1055 958 1056C956 1057 956 1058 956 1062C956 1066 956 1067 954 1068C952 1069 952 1070 952 1076C952 1084 952 1084 958 1084C962 1084 963 1085 964 1086C966 1089 982 1089 984 1086C985 1084 986 1084 990 1084C994 1084 995 1084 996 1082C997 1081 998 1080 1000 1080C1001 1080 1004 1078 1008 1074C1012 1070 1015 1068 1016 1068C1017 1068 1020 1066 1024 1062C1028 1058 1031 1056 1032 1056C1033 1056 1038 1052 1046 1044C1054 1036 1059 1032 1060 1032C1061 1032 1065 1029 1070 1024C1075 1019 1079 1016 1080 1016C1082 1016 1084 1014 1086 1012C1088 1009 1090 1008 1092 1008C1094 1008 1096 1007 1098 1004C1101 1000 1102 1000 1106 1000C1110 1000 1111 1000 1112 998C1113 996 1114 996 1118 996C1122 996 1123 996 1124 994C1126 991 1134 991 1138 995C1140 998 1140 998 1138 1000C1136 1001 1136 1002 1136 1012C1136 1022 1136 1023 1134 1024C1132 1025 1132 1026 1132 1038C1132 1050 1132 1051 1134 1052C1136 1053 1136 1054 1136 1058C1136 1062 1136 1063 1138 1064C1139 1065 1140 1066 1140 1068C1140 1072 1140 1072 1148 1072C1154 1072 1155 1072 1156 1074C1158 1077 1178 1077 1180 1074C1181 1072 1182 1072 1190 1072C1198 1072 1199 1072 1200 1070C1201 1069 1202 1068 1204 1068C1206 1068 1207 1067 1208 1066C1209 1065 1210 1064 1212 1064C1214 1064 1216 1063 1218 1060C1220 1058 1222 1056 1224 1056C1227 1056 1236 1047 1236 1044C1236 1043 1238 1040 1242 1036C1246 1032 1248 1029 1248 1028C1248 1026 1249 1025 1250 1024C1251 1023 1252 1022 1252 1020C1252 1018 1253 1017 1254 1016C1255 1015 1256 1014 1256 1012C1256 1010 1257 1009 1258 1008C1259 1007 1260 1006 1260 1004C1260 1002 1261 1001 1262 1000C1264 999 1264 998 1264 994C1264 990 1264 989 1266 988C1267 987 1268 986 1268 984C1268 982 1269 981 1270 980C1271 979 1272 978 1272 976C1272 974 1273 973 1274 972C1276 971 1276 970 1276 966C1276 962 1276 961 1278 960C1279 959 1280 958 1280 956C1280 954 1281 953 1282 952C1284 951 1284 950 1284 946C1284 942 1284 941 1286 940C1287 939 1288 938 1288 936C1288 935 1289 933 1291 931C1294 928 1294 928 1314 928C1334 928 1334 928 1337 931C1341 935 1341 942 1338 944C1336 945 1336 946 1336 950C1336 954 1336 955 1334 956C1333 957 1332 958 1332 960C1332 962 1331 963 1330 964C1328 965 1328 966 1328 972C1328 978 1328 979 1326 980C1324 981 1324 982 1324 986C1324 990 1324 991 1322 992C1320 993 1320 994 1320 998C1320 1002 1320 1003 1318 1004C1316 1005 1316 1006 1316 1012C1316 1018 1316 1019 1314 1020C1312 1021 1312 1022 1312 1026C1312 1030 1312 1031 1310 1032C1308 1033 1308 1034 1308 1038C1308 1042 1308 1043 1306 1044C1304 1045 1304 1046 1304 1052C1304 1058 1304 1059 1302 1060C1300 1061 1300 1062 1300 1078L1300 1096L1318 1096C1334 1096 1335 1096 1336 1094C1337 1092 1338 1092 1342 1092C1346 1092 1347 1092 1348 1090C1349 1089 1350 1088 1352 1088C1354 1088 1355 1087 1356 1086C1357 1085 1358 1084 1360 1084C1363 1084 1416 1031 1416 1028C1416 1027 1420 1022 1426 1016C1432 1010 1436 1005 1436 1004C1436 1003 1440 998 1446 992C1452 986 1456 981 1456 980C1456 977 1469 964 1472 964C1473 964 1477 961 1482 956C1488 950 1491 948 1492 948C1494 948 1495 947 1496 946C1497 945 1498 944 1500 944C1502 944 1503 943 1504 942C1505 940 1506 940 1510 940C1514 940 1515 940 1516 938C1517 937 1518 936 1520 936C1522 936 1523 935 1524 934C1525 932 1526 932 1530 932C1534 932 1535 932 1536 930C1538 927 1546 927 1550 931C1552 934 1552 934 1550 936C1548 937 1548 938 1548 948C1548 958 1548 959 1546 960C1544 961 1544 962 1544 974C1544 986 1544 987 1542 988C1540 989 1540 990 1540 1000C1540 1010 1540 1011 1538 1012C1536 1013 1536 1014 1536 1026C1536 1038 1536 1039 1534 1040C1532 1041 1532 1042 1532 1050C1532 1058 1532 1058 1535 1061C1538 1064 1538 1064 1548 1064C1558 1064 1559 1064 1560 1062C1561 1060 1562 1060 1568 1060C1574 1060 1575 1060 1576 1058C1577 1057 1578 1056 1580 1056C1582 1056 1583 1055 1584 1054C1585 1052 1586 1052 1590 1052C1594 1052 1595 1052 1596 1050C1597 1049 1598 1048 1600 1048C1602 1048 1603 1047 1604 1046C1605 1045 1606 1044 1608 1044C1610 1044 1611 1043 1612 1042C1613 1041 1614 1040 1616 1040C1618 1040 1619 1039 1620 1038C1621 1037 1622 1036 1624 1036C1626 1036 1627 1035 1628 1034C1629 1033 1630 1032 1632 1032C1634 1032 1635 1031 1636 1030C1637 1029 1638 1028 1640 1028C1643 1028 1696 975 1696 972C1696 970 1697 969 1698 968C1699 967 1700 966 1700 964C1700 962 1701 961 1702 960C1704 959 1704 958 1704 954C1704 950 1704 949 1708 946C1712 943 1712 942 1712 938C1712 934 1712 933 1716 930C1719 928 1720 926 1720 924C1720 922 1721 921 1722 920C1723 919 1724 918 1724 916C1724 914 1725 913 1726 912C1727 911 1728 910 1728 908C1728 907 1729 905 1732 902C1734 900 1736 897 1736 895C1736 893 1737 892 1740 892C1742 892 1743 891 1744 890C1745 888 1746 888 1754 888C1764 888 1764 888 1764 891C1764 893 1766 896 1770 900C1774 904 1776 907 1776 908C1776 909 1778 912 1781 915C1786 920 1786 920 1794 920C1802 920 1803 920 1804 918C1805 916 1806 916 1812 916C1818 916 1819 916 1820 914C1821 912 1822 912 1826 912C1830 912 1831 912 1832 910C1833 908 1834 908 1840 908C1846 908 1847 908 1848 906C1849 904 1850 904 1858 904C1866 904 1867 904 1868 902C1870 899 1890 899 1892 902C1893 904 1894 904 1900 904C1908 904 1908 904 1908 908C1908 911 1909 912 1912 912C1915 912 1916 913 1916 916C1916 918 1917 919 1918 920C1919 921 1920 922 1920 924C1920 926 1921 927 1922 928C1924 929 1924 930 1924 938C1924 946 1924 947 1922 948C1921 949 1920 950 1920 952C1920 955 1907 968 1904 968C1902 968 1901 969 1900 970C1899 972 1898 972 1890 972C1882 972 1882 972 1879 969C1876 966 1876 966 1876 960C1876 954 1876 953 1874 952C1873 951 1872 950 1872 948C1871 944 1866 942 1864 946C1863 948 1862 948 1852 948C1842 948 1841 948 1840 950C1839 952 1838 952 1834 952C1830 952 1829 952 1828 954C1827 955 1826 956 1824 956C1822 956 1821 957 1820 958C1819 959 1818 960 1816 960C1814 960 1813 961 1812 962C1811 963 1810 964 1808 964C1806 964 1805 965 1804 966C1803 967 1802 968 1800 968C1798 968 1796 969 1794 972C1792 975 1790 976 1788 976C1786 976 1784 977 1782 980C1780 983 1778 984 1776 984C1774 984 1772 985 1770 988C1768 990 1766 992 1764 992C1761 992 1752 1001 1752 1004C1752 1006 1751 1007 1750 1008C1749 1009 1748 1010 1748 1012C1748 1013 1745 1017 1736 1026C1728 1034 1724 1039 1724 1040C1724 1041 1719 1048 1708 1058C1697 1069 1692 1075 1692 1076C1692 1077 1690 1080 1686 1084C1682 1088 1680 1091 1680 1092C1680 1093 1676 1099 1667 1107C1654 1120 1654 1120 1648 1120C1642 1120 1641 1120 1640 1118C1639 1116 1638 1116 1628 1116C1616 1116 1616 1116 1616 1108C1616 1102 1616 1101 1618 1100C1620 1099 1620 1098 1620 1094C1620 1090 1620 1089 1622 1088C1623 1087 1624 1086 1624 1084C1624 1080 1622 1079 1620 1082C1619 1083 1617 1084 1616 1084C1614 1084 1613 1085 1612 1086C1611 1088 1610 1088 1606 1088C1602 1088 1601 1088 1600 1090C1599 1091 1598 1092 1596 1092C1594 1092 1593 1093 1592 1094C1591 1095 1590 1096 1588 1096C1586 1096 1585 1097 1584 1098C1583 1099 1582 1100 1580 1100C1578 1100 1577 1101 1576 1102C1575 1104 1574 1104 1566 1104C1558 1104 1557 1104 1556 1106C1555 1108 1554 1108 1522 1108C1490 1108 1489 1108 1488 1106C1487 1104 1486 1104 1482 1104C1478 1104 1478 1104 1471 1097C1466 1092 1464 1089 1464 1088C1464 1086 1463 1085 1462 1084C1460 1083 1460 1082 1460 1078C1460 1074 1460 1073 1458 1072C1457 1071 1456 1070 1456 1066C1456 1061 1455 1060 1453 1060C1450 1060 1449 1061 1444 1066C1440 1070 1437 1072 1436 1072C1435 1072 1432 1074 1428 1078C1424 1082 1421 1084 1420 1084C1419 1084 1416 1086 1412 1090C1408 1094 1405 1096 1404 1096C1402 1096 1400 1097 1398 1100C1396 1103 1394 1104 1392 1104C1390 1104 1388 1105 1386 1108C1384 1111 1382 1112 1380 1112C1378 1112 1377 1113 1376 1114C1375 1115 1374 1116 1372 1116C1370 1116 1369 1117 1368 1118C1367 1119 1366 1120 1364 1120C1362 1120 1361 1121 1360 1122C1359 1123 1358 1124 1356 1124C1354 1124 1353 1125 1352 1126C1351 1127 1350 1128 1348 1128C1346 1128 1345 1129 1344 1130C1343 1132 1342 1132 1338 1132C1334 1132 1333 1132 1332 1134C1331 1136 1330 1136 1326 1136C1322 1136 1321 1136 1320 1138C1319 1140 1318 1140 1306 1140C1294 1140 1293 1140 1292 1142C1291 1144 1290 1144 1282 1144C1274 1144 1273 1144 1272 1142ZM1948 1106C1947 1104 1946 1104 1938 1104C1930 1104 1929 1104 1928 1102C1927 1101 1926 1100 1924 1100C1922 1100 1921 1099 1920 1098C1919 1097 1918 1096 1916 1096C1915 1096 1912 1094 1909 1091C1904 1086 1904 1086 1904 1068C1904 1050 1904 1049 1906 1048C1907 1047 1908 1046 1908 1044C1908 1042 1909 1041 1910 1040C1911 1039 1912 1038 1912 1036C1912 1034 1913 1033 1914 1032C1915 1031 1916 1030 1916 1028C1916 1026 1917 1024 1920 1022C1923 1020 1924 1018 1924 1016C1924 1015 1926 1012 1930 1008C1934 1005 1936 1001 1936 1000C1936 997 2001 932 2004 932C2005 932 2009 930 2012 926C2016 922 2019 920 2020 920C2022 920 2023 919 2024 918C2025 917 2026 916 2028 916C2030 916 2031 915 2032 914C2033 913 2034 912 2036 912C2038 912 2039 911 2040 910C2041 909 2042 908 2044 908C2046 908 2047 907 2048 906C2049 904 2050 904 2054 904C2058 904 2059 904 2060 902C2061 900 2062 900 2068 900C2074 900 2075 900 2076 898C2077 896 2078 896 2084 896C2090 896 2091 896 2092 894C2093 892 2094 892 2102 892C2110 892 2111 892 2112 894C2113 896 2114 896 2120 896C2126 896 2127 896 2128 898C2129 900 2130 900 2136 900C2142 900 2143 900 2144 902C2145 904 2146 904 2152 904C2160 904 2160 904 2160 910C2160 914 2160 915 2158 916C2157 917 2156 918 2156 920C2156 922 2155 923 2154 924C2153 925 2152 926 2152 928C2152 931 2151 932 2148 932C2146 932 2145 933 2144 934C2142 937 2126 937 2124 934C2123 932 2122 932 2118 932C2114 932 2113 932 2112 930C2111 928 2110 928 2104 928C2098 928 2097 928 2096 930C2095 931 2094 932 2092 932C2090 932 2088 933 2086 936C2084 939 2082 940 2080 940C2078 940 2077 941 2076 942C2075 943 2074 944 2072 944C2070 944 2068 945 2066 948C2064 951 2062 952 2060 952C2059 952 2056 954 2052 958C2048 962 2045 964 2044 964C2041 964 2004 1001 2004 1004C2004 1006 2002 1008 2000 1010C1997 1012 1996 1014 1996 1016C1996 1018 1995 1020 1992 1022C1989 1024 1988 1026 1988 1028C1988 1030 1987 1032 1984 1034C1980 1037 1980 1038 1980 1042C1980 1046 1980 1047 1982 1048C1983 1049 1984 1050 1984 1052C1985 1056 1990 1058 1992 1054C1993 1053 1994 1052 1996 1052C1998 1052 1999 1051 2000 1050C2001 1049 2002 1048 2004 1048C2006 1048 2008 1047 2010 1044C2012 1042 2014 1040 2016 1040C2017 1040 2022 1036 2030 1028C2038 1020 2043 1016 2044 1016C2045 1016 2050 1012 2056 1006C2063 999 2067 996 2068 996C2070 996 2071 995 2072 994C2073 993 2074 992 2076 992C2078 992 2080 991 2082 988C2084 985 2086 984 2088 984C2090 984 2091 983 2092 982C2093 981 2094 980 2096 980C2098 980 2099 979 2100 978C2101 977 2102 976 2104 976C2106 976 2107 975 2108 974C2109 972 2110 972 2114 972C2118 972 2119 972 2120 970C2121 969 2122 968 2124 968C2126 968 2127 967 2128 966C2129 964 2130 964 2138 964C2146 964 2147 964 2148 962C2150 959 2154 959 2157 963C2160 966 2160 966 2160 978C2160 990 2160 991 2158 992C2156 993 2156 994 2156 1010C2156 1026 2156 1027 2154 1028C2152 1030 2152 1030 2154 1032C2155 1033 2156 1035 2156 1038C2156 1043 2157 1044 2159 1044C2161 1044 2163 1045 2164 1046C2166 1048 2166 1048 2168 1046C2170 1044 2171 1044 2178 1044C2186 1044 2187 1044 2188 1042C2189 1040 2190 1040 2194 1040C2198 1040 2199 1040 2200 1038C2201 1037 2202 1036 2204 1036C2206 1036 2207 1035 2208 1034C2209 1033 2210 1032 2212 1032C2214 1032 2215 1031 2216 1030C2217 1029 2218 1028 2220 1028C2222 1028 2224 1027 2226 1024C2228 1021 2230 1020 2232 1020C2233 1020 2236 1018 2240 1014C2244 1010 2247 1008 2248 1008C2251 1008 2272 987 2272 984C2272 982 2273 981 2274 980C2275 979 2276 978 2276 976C2276 974 2275 973 2274 972C2272 971 2272 970 2272 956C2272 942 2272 941 2270 940C2268 939 2268 938 2268 918C2268 898 2268 898 2277 889C2283 883 2287 880 2288 880C2290 880 2292 878 2294 876C2296 874 2298 872 2300 872C2303 872 2308 877 2308 880C2308 882 2309 883 2310 884C2312 885 2312 886 2312 890C2312 894 2312 895 2314 896C2316 897 2316 898 2316 902C2316 906 2316 907 2318 908C2320 909 2320 910 2320 916C2320 922 2320 923 2322 924C2324 925 2324 926 2324 932C2324 938 2324 939 2326 940C2328 941 2328 942 2328 946C2328 950 2328 951 2330 952C2332 953 2332 954 2332 960C2332 966 2332 967 2334 968C2336 969 2336 970 2336 974C2336 978 2336 979 2338 980C2340 981 2340 982 2340 986C2340 990 2340 991 2342 992C2344 993 2344 994 2344 998C2344 1002 2344 1003 2346 1004C2347 1005 2348 1006 2348 1009C2348 1010 2348 1012 2349 1012C2351 1012 2368 994 2368 992C2368 991 2371 987 2376 982C2381 977 2384 973 2384 972C2384 971 2387 967 2392 962C2397 957 2400 953 2400 952C2400 951 2402 948 2406 944C2410 940 2412 937 2412 936C2412 935 2415 931 2420 926C2425 921 2428 917 2428 916C2428 915 2430 912 2434 908C2438 904 2440 901 2440 900C2440 899 2443 894 2450 888C2456 882 2460 877 2460 876C2460 875 2464 870 2470 864C2476 858 2480 853 2480 852C2480 851 2484 846 2492 838C2500 830 2504 825 2504 824C2504 823 2509 817 2519 807L2534 792L2556 792C2578 792 2578 792 2581 795C2585 798 2585 800 2582 800C2581 801 2580 802 2580 804C2580 806 2579 807 2576 810C2573 812 2572 814 2572 816C2572 817 2570 820 2566 824C2562 828 2560 831 2560 832C2560 834 2559 836 2556 838C2553 840 2552 842 2552 844C2552 845 2550 848 2546 852C2542 856 2540 859 2540 860C2540 861 2538 864 2534 868C2530 872 2528 875 2528 876C2528 878 2527 880 2524 882C2521 884 2520 886 2520 888C2520 889 2518 892 2514 896C2510 900 2508 903 2508 904C2508 906 2507 907 2506 908C2505 909 2504 910 2504 912C2504 913 2502 916 2496 922C2491 927 2488 931 2488 932C2488 933 2486 936 2482 940C2478 944 2476 947 2476 948C2476 949 2474 952 2470 956C2466 960 2464 963 2464 964C2464 965 2462 968 2458 972C2454 976 2452 979 2452 980C2452 981 2450 984 2446 988C2442 992 2440 995 2440 996C2440 998 2439 1000 2436 1002C2433 1004 2432 1006 2432 1008C2432 1009 2430 1012 2426 1016C2422 1020 2420 1023 2420 1024C2420 1025 2417 1029 2412 1034C2407 1039 2404 1043 2404 1044C2404 1046 2402 1048 2400 1050C2398 1052 2396 1054 2396 1056C2396 1059 2379 1076 2376 1076C2374 1076 2372 1078 2370 1080C2368 1083 2366 1084 2364 1084C2362 1084 2361 1085 2360 1086C2359 1088 2358 1088 2344 1088C2330 1088 2329 1088 2328 1086C2327 1084 2326 1084 2322 1084C2318 1084 2317 1084 2316 1082C2315 1080 2314 1080 2310 1080C2306 1080 2306 1080 2297 1071C2290 1065 2288 1061 2288 1060C2288 1058 2287 1057 2286 1056C2284 1055 2284 1054 2284 1050C2284 1043 2275 1036 2272 1042C2271 1043 2270 1044 2268 1044C2266 1044 2264 1045 2262 1048C2260 1051 2258 1052 2256 1052C2254 1052 2253 1053 2252 1054C2251 1055 2250 1056 2248 1056C2246 1056 2244 1057 2242 1060C2240 1063 2238 1064 2236 1064C2234 1064 2233 1065 2232 1066C2231 1067 2230 1068 2228 1068C2226 1068 2225 1069 2224 1070C2223 1071 2222 1072 2220 1072C2218 1072 2217 1073 2216 1074C2215 1076 2214 1076 2210 1076C2206 1076 2205 1076 2204 1078C2203 1080 2202 1080 2178 1080C2154 1080 2153 1080 2152 1078C2151 1076 2150 1076 2146 1076C2142 1076 2141 1076 2140 1074C2139 1073 2138 1072 2136 1072C2135 1072 2132 1070 2128 1066C2124 1062 2121 1060 2120 1060C2119 1060 2114 1057 2108 1050C2097 1038 2095 1038 2090 1044C2088 1047 2086 1048 2084 1048C2082 1048 2080 1049 2078 1052C2076 1055 2074 1056 2072 1056C2070 1056 2068 1057 2066 1060C2064 1063 2062 1064 2060 1064C2058 1064 2057 1065 2056 1066C2055 1067 2054 1068 2052 1068C2050 1068 2048 1069 2046 1072C2044 1075 2042 1076 2040 1076C2038 1076 2036 1077 2034 1080C2032 1083 2030 1084 2028 1084C2026 1084 2025 1085 2024 1086C2023 1087 2022 1088 2020 1088C2018 1088 2017 1089 2016 1090C2015 1091 2014 1092 2012 1092C2010 1092 2009 1093 2008 1094C2007 1095 2006 1096 2004 1096C2002 1096 2001 1097 2000 1098C1999 1100 1998 1100 1994 1100C1990 1100 1989 1100 1988 1102C1987 1104 1986 1104 1976 1104C1966 1104 1965 1104 1964 1106C1963 1108 1962 1108 1956 1108C1950 1108 1949 1108 1948 1106ZM2820 1098C2819 1096 2818 1096 2810 1096C2802 1096 2801 1096 2800 1094C2799 1092 2798 1092 2792 1092C2786 1092 2785 1092 2784 1090C2783 1089 2782 1088 2780 1088C2778 1088 2777 1087 2776 1086C2775 1085 2774 1084 2772 1084C2770 1084 2768 1083 2766 1080C2764 1078 2762 1076 2760 1076C2757 1076 2732 1051 2732 1047C2732 1045 2731 1044 2726 1044C2722 1044 2721 1044 2720 1046C2719 1047 2718 1048 2716 1048C2715 1048 2712 1050 2708 1054C2704 1058 2701 1060 2700 1060C2698 1060 2697 1061 2696 1062C2695 1063 2694 1064 2692 1064C2690 1064 2689 1065 2688 1066C2687 1068 2686 1068 2682 1068C2678 1068 2677 1068 2676 1070C2675 1071 2674 1072 2672 1072C2670 1072 2669 1073 2668 1074C2667 1076 2666 1076 2662 1076C2658 1076 2657 1076 2656 1078C2655 1079 2654 1080 2652 1080C2650 1080 2649 1081 2648 1082C2647 1084 2646 1084 2640 1084C2634 1084 2633 1084 2632 1086C2631 1088 2630 1088 2618 1088C2606 1088 2605 1088 2604 1090C2603 1092 2602 1092 2598 1092C2594 1092 2593 1092 2592 1090C2591 1088 2590 1088 2576 1088C2562 1088 2561 1088 2560 1086C2559 1084 2558 1084 2552 1084C2546 1084 2545 1084 2544 1082C2543 1080 2542 1080 2538 1080C2534 1080 2533 1080 2532 1078C2531 1077 2530 1076 2528 1076C2525 1076 2516 1067 2516 1064C2516 1062 2517 1061 2518 1060C2520 1059 2520 1058 2520 1054C2520 1050 2520 1049 2522 1048C2524 1047 2524 1046 2524 1042C2524 1038 2524 1037 2526 1036C2528 1035 2528 1034 2528 1028C2528 1022 2528 1021 2530 1020C2532 1019 2532 1018 2532 1014C2532 1010 2532 1009 2534 1008C2536 1007 2536 1006 2536 1002C2536 998 2536 997 2538 996C2540 995 2540 994 2540 990C2540 986 2540 985 2542 984C2544 983 2544 982 2544 978C2544 974 2544 973 2546 972C2547 971 2548 970 2548 968C2548 966 2549 965 2550 964C2551 963 2552 962 2552 960C2552 958 2553 957 2554 956C2555 955 2556 954 2556 952C2556 950 2557 949 2558 948C2559 947 2560 946 2560 944C2560 941 2569 932 2572 932C2574 932 2575 931 2576 930C2577 928 2578 928 2592 928C2607 928 2611 929 2606 932C2604 933 2604 934 2604 940C2604 946 2604 947 2602 948C2600 949 2600 950 2600 956C2600 962 2600 963 2598 964C2596 965 2596 966 2596 970C2596 974 2596 975 2594 976C2592 977 2592 978 2592 982C2592 986 2592 987 2590 988C2588 989 2588 990 2588 996C2588 1002 2588 1003 2586 1004C2584 1005 2584 1006 2584 1012C2584 1018 2584 1019 2582 1020C2580 1021 2580 1022 2580 1030L2580 1040L2598 1040C2614 1040 2615 1040 2616 1038C2617 1036 2618 1036 2622 1036C2626 1036 2627 1036 2628 1034C2629 1032 2630 1032 2634 1032C2638 1032 2639 1032 2640 1030C2641 1029 2642 1028 2644 1028C2646 1028 2647 1027 2648 1026C2649 1025 2650 1024 2652 1024C2654 1024 2655 1023 2656 1022C2657 1020 2658 1020 2662 1020C2666 1020 2667 1020 2668 1018C2669 1017 2670 1016 2672 1016C2674 1016 2676 1015 2678 1012C2680 1009 2682 1008 2684 1008C2686 1008 2687 1007 2688 1006C2689 1005 2690 1004 2692 1004C2694 1004 2695 1003 2696 1002C2697 1001 2698 1000 2700 1000C2701 1000 2704 998 2708 994C2712 990 2715 988 2717 988C2719 988 2720 987 2720 985C2720 983 2722 980 2726 976C2730 972 2732 969 2732 968C2732 966 2733 964 2736 962C2739 960 2740 958 2740 956C2740 954 2741 953 2742 952C2743 951 2744 950 2744 948C2744 946 2745 944 2748 942C2751 940 2752 938 2752 936C2752 934 2753 933 2754 932C2755 931 2756 930 2756 928C2756 926 2757 925 2758 924C2759 923 2760 922 2760 920C2760 918 2761 917 2762 916C2763 915 2764 914 2764 912C2764 910 2765 909 2766 908C2767 907 2768 906 2768 904C2768 902 2769 901 2770 900C2771 899 2772 898 2772 896C2772 894 2773 893 2774 892C2775 891 2776 890 2776 888C2776 886 2777 885 2778 884C2779 883 2780 882 2780 880C2780 878 2781 877 2782 876C2783 875 2784 874 2784 872C2784 870 2785 869 2786 868C2788 867 2788 866 2788 862C2788 858 2788 857 2790 856C2791 855 2792 854 2792 852C2792 850 2793 849 2794 848C2795 847 2796 846 2796 844C2796 842 2797 841 2798 840C2800 839 2800 838 2800 834C2800 830 2800 829 2802 828C2803 827 2804 826 2804 824C2804 822 2805 821 2806 820C2807 819 2808 818 2808 816C2808 814 2809 813 2810 812C2812 811 2812 810 2812 806C2812 802 2812 801 2814 800C2815 799 2816 798 2816 796C2816 794 2817 793 2818 792C2820 791 2820 790 2820 786C2820 782 2820 781 2822 780C2823 779 2824 778 2824 776C2824 774 2825 773 2826 772C2827 771 2828 770 2828 768C2828 766 2829 765 2830 764C2832 763 2832 762 2832 758C2832 754 2832 753 2834 752C2835 751 2836 750 2836 748C2836 746 2837 745 2838 744C2839 743 2840 742 2840 740C2840 738 2841 737 2842 736C2844 735 2844 734 2844 730C2844 726 2844 725 2846 724C2847 723 2848 722 2848 720C2848 718 2849 717 2850 716C2851 715 2852 714 2852 712C2852 710 2853 709 2854 708C2856 707 2856 706 2856 702C2856 698 2856 697 2858 696C2859 695 2860 694 2860 692C2860 690 2861 689 2862 688C2864 687 2864 686 2864 682C2864 678 2864 677 2866 676C2867 675 2868 674 2868 672C2868 670 2869 669 2870 668C2871 667 2872 666 2872 664C2872 662 2873 661 2874 660C2875 659 2876 658 2876 656C2876 654 2877 653 2878 652C2880 651 2880 650 2880 646C2880 642 2880 641 2882 640C2883 639 2884 638 2884 636C2884 634 2885 633 2886 632C2888 631 2888 630 2888 626C2888 622 2888 621 2890 620C2891 619 2892 618 2892 616C2892 614 2893 613 2894 612C2895 611 2896 610 2896 608C2896 606 2897 605 2898 604C2899 603 2900 602 2900 600C2900 598 2901 597 2902 596C2903 595 2904 594 2904 592C2904 590 2905 589 2906 588C2907 587 2908 586 2908 584C2908 582 2909 581 2910 580C2911 579 2912 578 2912 576C2912 574 2913 573 2914 572C2916 571 2916 570 2916 566C2916 562 2916 561 2920 558C2923 556 2924 554 2924 552C2924 550 2925 549 2926 548C2927 547 2928 546 2928 544C2928 542 2929 541 2930 540C2931 539 2932 538 2932 536C2932 534 2933 533 2934 532C2935 531 2936 530 2936 528C2936 526 2937 525 2938 524C2939 523 2940 522 2940 520C2940 518 2941 516 2944 514C2947 512 2948 510 2948 508C2948 506 2949 505 2950 504C2951 503 2952 502 2952 500C2952 498 2953 497 2954 496C2955 495 2956 494 2956 492C2956 491 2957 489 2960 486C2962 484 2964 481 2964 479C2964 476 2964 476 2982 476C2998 476 2999 476 3000 478C3001 479 3002 480 3006 480C3012 480 3012 480 3012 488C3012 494 3012 495 3010 496C3009 497 3008 498 3008 500C3008 502 3007 503 3006 504C3005 505 3004 506 3004 508C3004 510 3003 511 3002 512C3001 513 3000 514 3000 516C3000 518 2999 519 2998 520C2997 521 2996 522 2996 524C2996 526 2995 527 2994 528C2993 529 2992 530 2992 532C2992 534 2991 535 2990 536C2989 537 2988 538 2988 540C2988 542 2987 543 2986 544C2985 545 2984 546 2984 548C2984 550 2983 551 2982 552C2981 553 2980 554 2980 556C2980 558 2979 559 2978 560C2977 561 2976 562 2976 564C2976 566 2975 567 2974 568C2973 569 2972 570 2972 572C2972 574 2971 575 2970 576C2969 577 2968 578 2968 580C2968 582 2967 583 2966 584C2965 585 2964 586 2964 588C2964 590 2963 591 2962 592C2961 593 2960 594 2960 596C2960 598 2959 599 2958 600C2956 601 2956 602 2956 606C2956 610 2956 611 2954 612C2953 613 2952 614 2952 616C2952 618 2951 619 2950 620C2949 621 2948 622 2948 624C2948 626 2947 627 2946 628C2945 629 2944 630 2944 632C2944 634 2943 635 2942 636C2941 637 2940 638 2940 640C2940 642 2939 643 2938 644C2937 645 2936 646 2936 648C2936 650 2935 651 2934 652C2932 653 2932 654 2932 658C2932 662 2932 663 2930 664C2929 665 2928 666 2928 668C2928 670 2927 671 2926 672C2925 673 2924 674 2924 676C2924 678 2923 679 2922 680C2921 681 2920 682 2920 684C2920 686 2919 687 2918 688C2916 689 2916 690 2916 694C2916 698 2916 699 2914 700C2913 701 2912 702 2912 704C2912 706 2911 707 2910 708C2909 709 2908 710 2908 712C2908 714 2907 715 2906 716C2904 717 2904 718 2904 722C2904 726 2904 727 2902 728C2901 729 2900 730 2900 732C2900 734 2899 735 2898 736C2897 737 2896 738 2896 740C2896 742 2895 743 2894 744C2892 745 2892 746 2892 750C2892 754 2892 755 2890 756C2889 757 2888 758 2888 760C2888 762 2887 763 2886 764C2885 765 2884 766 2884 768C2884 770 2883 771 2882 772C2880 773 2880 774 2880 778C2880 782 2880 783 2878 784C2877 785 2876 786 2876 788C2876 790 2875 791 2874 792C2872 793 2872 794 2872 798C2872 802 2872 803 2870 804C2868 805 2868 806 2868 810C2868 814 2868 815 2866 816C2865 817 2864 818 2864 820C2864 822 2863 823 2862 824C2860 825 2860 826 2860 830C2860 834 2860 835 2858 836C2857 837 2856 838 2856 840C2856 842 2855 843 2854 844C2852 845 2852 846 2852 850C2852 854 2852 855 2850 856C2848 857 2848 858 2848 862C2848 866 2848 867 2846 868C2845 869 2844 870 2844 872C2844 874 2843 875 2842 876C2840 877 2840 878 2840 882C2840 886 2840 887 2838 888C2836 889 2836 890 2836 894C2836 898 2836 899 2834 900C2833 901 2832 902 2832 904C2832 906 2831 907 2830 908C2828 909 2828 910 2828 914C2828 918 2828 919 2826 920C2824 921 2824 922 2824 930C2824 938 2824 939 2822 940C2820 941 2820 942 2820 946C2820 950 2820 951 2818 952C2816 953 2816 954 2816 964C2816 974 2816 975 2814 976C2812 977 2812 978 2812 988C2812 998 2812 999 2810 1000C2808 1001 2808 1002 2808 1016C2808 1030 2808 1031 2806 1032C2804 1033 2804 1034 2804 1038C2804 1044 2804 1044 2815 1044C2825 1044 2826 1044 2828 1046C2830 1048 2830 1048 2832 1046C2834 1044 2835 1044 2846 1044C2858 1044 2859 1044 2860 1042C2861 1040 2862 1040 2866 1040C2870 1040 2871 1040 2872 1038C2873 1036 2874 1036 2878 1036C2882 1036 2883 1036 2884 1034C2885 1033 2886 1032 2888 1032C2890 1032 2891 1031 2892 1030C2893 1029 2894 1028 2896 1028C2898 1028 2899 1027 2900 1026C2901 1025 2902 1024 2904 1024C2906 1024 2907 1023 2908 1022C2909 1021 2910 1020 2912 1020C2914 1020 2915 1019 2916 1018C2917 1017 2918 1016 2920 1016C2922 1016 2924 1015 2926 1012C2928 1010 2930 1008 2932 1008C2933 1008 2937 1005 2942 1000C2947 995 2951 992 2952 992C2955 992 2976 971 2976 968C2976 967 2980 962 2986 956C2993 949 2996 945 2996 944C2996 942 2998 940 3000 938C3003 936 3004 934 3004 932C3004 930 3005 928 3008 926C3011 924 3012 922 3012 920C3012 918 3013 917 3014 916C3015 915 3016 914 3016 912C3016 910 3017 908 3020 906C3023 904 3024 902 3024 900C3024 898 3025 897 3026 896C3027 895 3028 894 3028 892C3028 890 3029 889 3030 888C3031 887 3032 886 3032 884C3032 882 3033 881 3034 880C3035 879 3036 878 3036 876C3036 874 3037 873 3038 872C3039 871 3040 870 3040 868C3040 866 3041 865 3042 864C3043 863 3044 862 3044 860C3044 858 3045 857 3046 856C3048 855 3048 854 3048 850C3048 846 3048 845 3050 844C3051 843 3052 842 3052 840C3052 838 3053 837 3054 836C3055 835 3056 834 3056 832C3056 830 3057 829 3058 828C3060 827 3060 826 3060 822C3060 818 3060 817 3062 816C3064 815 3064 814 3064 810C3064 806 3064 805 3066 804C3067 803 3068 802 3068 800C3068 798 3069 797 3070 796C3071 795 3072 794 3072 792C3072 790 3073 789 3074 788C3076 787 3076 786 3076 782C3076 778 3076 777 3078 776C3079 775 3080 774 3080 772C3080 770 3081 769 3082 768C3084 767 3084 766 3084 762C3084 758 3084 757 3086 756C3087 755 3088 754 3088 752C3088 750 3089 749 3090 748C3091 747 3092 746 3092 744C3092 742 3093 741 3094 740C3096 739 3096 738 3096 734C3096 730 3096 729 3098 728C3100 727 3100 726 3100 722C3100 718 3100 717 3102 716C3103 715 3104 714 3104 712C3104 710 3105 709 3106 708C3108 707 3108 706 3108 702C3108 698 3108 697 3110 696C3111 695 3112 694 3112 692C3112 690 3113 689 3114 688C3116 687 3116 686 3116 682C3116 678 3116 677 3118 676C3119 675 3120 674 3120 672C3120 670 3121 669 3122 668C3124 667 3124 666 3124 662C3124 658 3124 657 3126 656C3127 655 3128 654 3128 652C3128 650 3129 649 3130 648C3131 647 3132 646 3132 644C3132 642 3133 641 3134 640C3136 639 3136 638 3136 634C3136 630 3136 629 3138 628C3139 627 3140 626 3140 624C3140 622 3141 621 3142 620C3144 619 3144 618 3144 614C3144 610 3144 609 3146 608C3147 607 3148 606 3148 604C3148 602 3149 601 3150 600C3152 599 3152 598 3152 594C3152 590 3152 589 3154 588C3155 587 3156 586 3156 584C3156 582 3157 581 3158 580C3159 579 3160 578 3160 576C3160 574 3161 573 3162 572C3164 571 3164 570 3164 566C3164 562 3164 561 3166 560C3168 559 3168 558 3168 554C3168 550 3168 549 3172 546C3176 543 3176 542 3176 538C3176 534 3176 533 3178 532C3179 531 3180 530 3180 528C3180 526 3181 525 3182 524C3183 523 3184 522 3184 520C3184 518 3185 517 3186 516C3187 515 3188 514 3188 512C3188 510 3189 509 3190 508C3191 507 3192 506 3192 504C3192 502 3193 501 3194 500C3195 499 3196 498 3196 496C3196 494 3197 493 3198 492C3199 491 3200 490 3200 488C3200 486 3201 485 3202 484C3203 483 3204 482 3204 480C3204 478 3205 477 3206 476C3207 475 3208 474 3208 472C3208 470 3209 469 3210 468C3211 467 3212 466 3212 464C3212 462 3213 461 3214 460C3215 459 3216 458 3216 456C3217 452 3222 450 3224 454C3225 456 3226 456 3230 456C3234 456 3235 456 3238 460C3241 464 3242 464 3246 464C3250 464 3251 464 3252 466C3253 467 3254 468 3256 468C3259 468 3260 469 3260 472C3260 474 3261 475 3262 476C3265 477 3265 480 3262 480C3261 481 3260 482 3260 484C3260 486 3259 487 3258 488C3257 489 3256 490 3256 492C3256 494 3255 495 3254 496C3253 497 3252 498 3252 500C3252 502 3251 503 3250 504C3249 505 3248 506 3248 508C3248 510 3247 511 3246 512C3245 513 3244 514 3244 516C3244 518 3243 519 3242 520C3241 521 3240 522 3240 524C3240 526 3239 527 3238 528C3236 529 3236 530 3236 534C3236 538 3236 539 3234 540C3233 541 3232 542 3232 544C3232 546 3231 547 3230 548C3229 549 3228 550 3228 552C3228 554 3227 555 3226 556C3225 557 3224 558 3224 560C3224 562 3223 563 3222 564C3220 565 3220 566 3220 570C3220 574 3220 575 3218 576C3217 577 3216 578 3216 580C3216 582 3215 583 3214 584C3213 585 3212 586 3212 588C3212 590 3211 591 3210 592C3208 593 3208 594 3208 598C3208 602 3208 603 3206 604C3205 605 3204 606 3204 608C3204 610 3203 611 3202 612C3201 613 3200 614 3200 616C3200 618 3199 619 3198 620C3197 621 3196 622 3196 624C3196 626 3195 627 3194 628C3192 629 3192 630 3192 634C3192 638 3192 639 3188 642C3184 645 3184 646 3184 650C3184 654 3184 655 3182 656C3180 657 3180 658 3180 662C3180 666 3180 667 3178 668C3177 669 3176 670 3176 672C3176 674 3175 675 3174 676C3173 677 3172 678 3172 680C3172 682 3171 683 3170 684C3168 685 3168 686 3168 690C3168 694 3168 695 3166 696C3165 697 3164 698 3164 700C3164 702 3163 703 3162 704C3161 705 3160 706 3160 708C3160 710 3159 711 3158 712C3156 713 3156 714 3156 718C3156 722 3156 723 3154 724C3152 725 3152 726 3152 730C3152 734 3152 735 3150 736C3149 737 3148 738 3148 740C3148 742 3147 743 3146 744C3144 745 3144 746 3144 750C3144 754 3144 755 3142 756C3141 757 3140 758 3140 760C3140 762 3139 763 3138 764C3136 765 3136 766 3136 770C3136 774 3136 775 3134 776C3132 777 3132 778 3132 782C3132 786 3132 787 3130 788C3129 789 3128 790 3128 792C3128 794 3127 795 3126 796C3124 797 3124 798 3124 802C3124 806 3124 807 3122 808C3120 809 3120 810 3120 814C3120 818 3120 819 3118 820C3116 821 3116 822 3116 826C3116 830 3116 831 3114 832C3112 833 3112 834 3112 838C3112 842 3112 843 3110 844C3108 845 3108 846 3108 850C3108 854 3108 855 3106 856C3104 857 3104 858 3104 862C3104 866 3104 867 3102 868C3100 869 3100 870 3100 874C3100 878 3100 879 3098 880C3096 881 3096 882 3096 886C3096 890 3096 891 3094 892C3092 893 3092 894 3092 898C3092 902 3092 903 3090 904C3088 905 3088 906 3088 910C3088 914 3088 915 3086 916C3084 917 3084 918 3084 922C3084 926 3084 927 3082 928C3080 929 3080 930 3080 934C3080 938 3080 939 3078 940C3076 941 3076 942 3076 946C3076 950 3076 951 3074 952C3072 953 3072 954 3072 962C3072 970 3072 971 3070 972C3068 973 3068 974 3068 980C3068 986 3068 987 3066 988C3064 989 3064 990 3064 996C3064 1002 3064 1003 3062 1004C3060 1005 3060 1006 3060 1016C3060 1026 3060 1027 3058 1028C3054 1030 3056 1034 3063 1041C3068 1046 3071 1048 3072 1048C3074 1048 3075 1049 3076 1050C3077 1051 3078 1052 3080 1052C3082 1052 3083 1053 3084 1054C3085 1056 3086 1056 3104 1056C3122 1056 3123 1056 3124 1054C3125 1053 3126 1052 3128 1052C3130 1052 3131 1051 3132 1050C3133 1049 3134 1048 3136 1048C3138 1048 3139 1047 3140 1046C3141 1045 3142 1044 3144 1044C3145 1044 3148 1042 3152 1038C3156 1034 3159 1032 3160 1032C3161 1032 3164 1030 3168 1026C3172 1022 3175 1020 3176 1020C3177 1020 3180 1018 3184 1014C3188 1010 3191 1008 3192 1008C3195 1008 3204 999 3204 995C3204 993 3205 992 3207 992C3211 992 3220 983 3220 980C3220 979 3224 974 3232 966C3240 958 3244 953 3244 952C3244 949 3249 944 3252 944C3253 944 3263 935 3282 916C3304 894 3311 888 3312 888C3314 888 3315 887 3316 886C3317 885 3318 884 3320 884C3322 884 3323 883 3324 882C3325 880 3326 880 3330 880C3334 880 3335 880 3336 878C3337 876 3338 876 3342 876C3346 876 3347 876 3348 874C3349 872 3350 872 3356 872C3362 872 3363 872 3364 870C3365 868 3366 868 3392 868C3418 868 3419 868 3420 870C3421 872 3422 872 3426 872C3430 872 3431 872 3432 874C3433 876 3434 876 3440 876C3446 876 3447 876 3448 878C3449 880 3450 880 3454 880C3460 880 3468 888 3468 894C3468 898 3468 899 3470 900C3472 902 3472 902 3470 904C3468 905 3468 906 3468 912C3468 918 3468 919 3466 920C3464 921 3464 922 3464 926C3464 930 3464 931 3460 934C3457 936 3456 938 3456 940C3456 942 3455 944 3452 946C3450 948 3448 950 3448 952C3448 955 3439 964 3436 964C3434 964 3433 965 3432 966C3431 967 3430 968 3428 968C3426 968 3425 969 3424 970C3423 971 3422 972 3420 972C3418 972 3417 973 3416 974C3415 975 3414 976 3412 976C3410 976 3409 977 3408 978C3407 980 3406 980 3402 980C3398 980 3397 980 3396 982C3395 984 3394 984 3390 984C3386 984 3385 984 3384 986C3383 988 3382 988 3376 988C3370 988 3369 988 3368 990C3367 992 3366 992 3356 992C3346 992 3345 992 3344 994C3342 997 3310 997 3308 994C3307 992 3306 992 3296 992C3284 992 3284 992 3284 1002C3284 1010 3284 1011 3286 1012C3287 1013 3288 1014 3288 1016C3288 1018 3289 1019 3290 1020C3291 1021 3292 1022 3292 1024C3292 1027 3297 1032 3300 1032C3302 1032 3303 1033 3304 1034C3305 1035 3306 1036 3308 1036C3310 1036 3311 1037 3312 1038C3313 1040 3314 1040 3324 1040C3334 1040 3335 1040 3336 1042C3337 1044 3338 1044 3352 1044C3366 1044 3367 1044 3368 1042C3369 1040 3370 1040 3378 1040C3386 1040 3387 1040 3388 1038C3389 1036 3390 1036 3394 1036C3398 1036 3399 1036 3400 1034C3401 1032 3402 1032 3406 1032C3410 1032 3411 1032 3412 1030C3413 1028 3414 1028 3418 1028C3422 1028 3423 1028 3424 1026C3425 1025 3426 1024 3428 1024C3430 1024 3431 1023 3432 1022C3433 1021 3434 1020 3436 1020C3438 1020 3439 1019 3440 1018C3441 1017 3442 1016 3444 1016C3446 1016 3447 1015 3448 1014C3449 1013 3450 1012 3452 1012C3454 1012 3456 1011 3458 1008C3460 1005 3462 1004 3464 1004C3466 1004 3468 1003 3470 1000C3472 997 3474 996 3476 996C3478 996 3479 995 3480 994C3481 993 3482 992 3484 992C3486 992 3488 991 3490 988C3492 985 3494 984 3496 984C3498 984 3500 983 3502 980C3504 977 3506 976 3508 976C3510 976 3512 975 3514 972C3516 969 3518 968 3520 968C3522 968 3523 967 3524 966C3525 965 3526 964 3528 964C3529 964 3532 962 3536 958C3540 954 3543 952 3544 952C3545 952 3548 950 3550 948C3554 944 3554 944 3561 944C3568 944 3568 944 3568 962C3568 978 3568 979 3566 980C3565 981 3564 982 3564 984C3564 987 3555 996 3552 996C3551 996 3547 999 3542 1004C3537 1009 3533 1012 3532 1012C3530 1012 3528 1014 3526 1016C3524 1019 3522 1020 3520 1020C3518 1020 3516 1021 3514 1024C3512 1027 3510 1028 3508 1028C3506 1028 3504 1029 3502 1032C3500 1035 3498 1036 3496 1036C3494 1036 3492 1037 3490 1040C3488 1043 3486 1044 3484 1044C3482 1044 3481 1045 3480 1046C3479 1047 3478 1048 3476 1048C3474 1048 3473 1049 3472 1050C3471 1051 3470 1052 3468 1052C3466 1052 3465 1053 3464 1054C3463 1055 3462 1056 3460 1056C3458 1056 3457 1057 3456 1058C3455 1060 3454 1060 3450 1060C3446 1060 3445 1060 3444 1062C3443 1063 3442 1064 3440 1064C3438 1064 3437 1065 3436 1066C3435 1068 3434 1068 3430 1068C3426 1068 3425 1068 3424 1070C3423 1072 3422 1072 3418 1072C3414 1072 3413 1072 3412 1074C3411 1076 3410 1076 3402 1076C3394 1076 3393 1076 3392 1078C3391 1080 3390 1080 3352 1080C3314 1080 3313 1080 3312 1078C3311 1076 3310 1076 3304 1076C3298 1076 3297 1076 3296 1074C3295 1072 3294 1072 3290 1072C3286 1072 3285 1072 3284 1070C3283 1068 3282 1068 3278 1068C3274 1068 3273 1068 3272 1066C3271 1065 3270 1064 3268 1064C3266 1064 3265 1063 3264 1062C3263 1061 3262 1060 3260 1060C3258 1060 3257 1059 3256 1058C3255 1057 3254 1056 3252 1056C3250 1056 3248 1055 3246 1052C3244 1049 3242 1048 3240 1048C3238 1048 3237 1047 3236 1046C3235 1045 3234 1044 3232 1044C3230 1044 3229 1043 3228 1042C3227 1040 3226 1040 3222 1040C3218 1040 3218 1040 3208 1050C3202 1057 3197 1060 3196 1060C3195 1060 3192 1062 3188 1066C3184 1070 3181 1072 3180 1072C3178 1072 3177 1073 3176 1074C3175 1075 3174 1076 3172 1076C3170 1076 3169 1077 3168 1078C3167 1079 3166 1080 3164 1080C3162 1080 3161 1081 3160 1082C3159 1083 3158 1084 3156 1084C3154 1084 3153 1085 3152 1086C3151 1088 3150 1088 3146 1088C3142 1088 3141 1088 3140 1090C3139 1092 3138 1092 3130 1092C3122 1092 3121 1092 3120 1094C3119 1096 3118 1096 3104 1096C3090 1096 3089 1096 3088 1094C3087 1092 3086 1092 3076 1092C3066 1092 3065 1092 3064 1090C3063 1088 3062 1088 3058 1088C3054 1088 3053 1088 3052 1086C3051 1085 3050 1084 3048 1084C3046 1084 3045 1083 3044 1082C3043 1081 3042 1080 3040 1080C3038 1080 3037 1079 3036 1078C3035 1077 3034 1076 3032 1076C3030 1076 3029 1075 3028 1074C3027 1073 3026 1072 3024 1072C3021 1072 2996 1047 2996 1044C2996 1042 2995 1041 2994 1040C2993 1039 2992 1038 2992 1036C2992 1035 2991 1032 2989 1030C2986 1028 2986 1028 2984 1030C2983 1031 2981 1032 2980 1032C2979 1032 2974 1036 2966 1044C2958 1052 2953 1056 2952 1056C2951 1056 2948 1058 2944 1062C2940 1066 2937 1068 2936 1068C2934 1068 2933 1069 2932 1070C2931 1071 2930 1072 2928 1072C2926 1072 2925 1073 2924 1074C2923 1076 2922 1076 2918 1076C2914 1076 2913 1076 2912 1078C2911 1079 2910 1080 2908 1080C2906 1080 2905 1081 2904 1082C2903 1083 2902 1084 2900 1084C2898 1084 2897 1085 2896 1086C2895 1088 2894 1088 2888 1088C2882 1088 2881 1088 2880 1090C2879 1092 2878 1092 2872 1092C2866 1092 2865 1092 2864 1094C2863 1096 2862 1096 2850 1096C2839 1096 2838 1096 2836 1098C2834 1100 2834 1100 2832 1098C2830 1095 2828 1095 2828 1098C2827 1099 2826 1100 2824 1100C2822 1100 2821 1099 2820 1098ZM3356 946C3357 944 3358 944 3366 944C3374 944 3375 944 3376 942C3377 941 3378 940 3380 940C3382 940 3383 939 3384 938C3385 937 3386 936 3388 936C3390 936 3392 935 3394 932C3396 930 3398 928 3400 928C3401 928 3403 927 3405 925C3408 922 3408 922 3408 915C3408 908 3408 908 3390 908C3374 908 3373 908 3372 910C3371 912 3370 912 3366 912C3362 912 3361 912 3360 914C3359 916 3358 916 3354 916C3350 916 3349 916 3346 920C3344 922 3342 924 3340 924C3337 924 3324 937 3324 941C3324 943 3325 944 3328 944C3330 944 3331 945 3332 946C3334 949 3354 949 3356 946ZM2588 910C2588 907 2588 905 2590 904C2591 903 2592 902 2592 900C2592 898 2593 897 2594 896C2595 895 2596 894 2596 892C2596 891 2598 888 2602 884C2606 880 2608 877 2608 875C2608 873 2609 872 2611 872C2613 872 2616 870 2620 866C2624 862 2627 860 2628 860C2630 860 2631 859 2632 858C2633 856 2634 856 2640 856C2648 856 2648 856 2648 862C2648 866 2648 867 2646 868C2644 869 2644 870 2644 874C2644 878 2644 879 2640 882C2638 884 2636 886 2636 888C2636 891 2623 904 2620 904C2618 904 2617 905 2616 906C2615 908 2614 908 2608 908C2603 908 2602 908 2600 910C2598 912 2598 912 2596 910C2594 908 2594 908 2592 910C2590 912 2588 913 2588 910Z"/></svg>
